<svg width="42" height="42" viewBox="0 0 42 42" fill="none" xmlns="http://www.w3.org/2000/svg">
<circle cx="21" cy="21" r="20" stroke="#DD802A" stroke-width="2"/>
<path d="M27 21.998H22V26.998C22 27.2632 21.8946 27.5176 21.7071 27.7051C21.5196 27.8926 21.2652 27.998 21 27.998C20.7348 27.998 20.4804 27.8926 20.2929 27.7051C20.1054 27.5176 20 27.2632 20 26.998V21.998H15C14.7348 21.998 14.4804 21.8926 14.2929 21.7051C14.1054 21.5176 14 21.2632 14 20.998C14 20.7328 14.1054 20.4784 14.2929 20.2909C14.4804 20.1034 14.7348 19.998 15 19.998H20V14.998C20 14.7328 20.1054 14.4784 20.2929 14.2909C20.4804 14.1034 20.7348 13.998 21 13.998C21.2652 13.998 21.5196 14.1034 21.7071 14.2909C21.8946 14.4784 22 14.7328 22 14.998V19.998H27C27.2652 19.998 27.5196 20.1034 27.7071 20.2909C27.8946 20.4784 28 20.7328 28 20.998C28 21.2632 27.8946 21.5176 27.7071 21.7051C27.5196 21.8926 27.2652 21.998 27 21.998Z" fill="#DD802A"/>
</svg>
