<svg width="42" height="42" viewBox="0 0 42 42" fill="none" xmlns="http://www.w3.org/2000/svg">
<circle cx="21" cy="21" r="20" stroke="#DD802A" stroke-width="2"/>
<path d="M27 21.998H22C21.5 22 22 22 21.5 22C21 22 21.2652 22 21 22C20.7348 22 21 22 20.5 22C20 22 20.5 22 20 21.998H15C14.7348 21.998 14.4804 21.8926 14.2929 21.7051C14.1054 21.5176 14 21.2632 14 20.998C14 20.7328 14.1054 20.4784 14.2929 20.2909C14.4804 20.1034 14.7348 19.998 15 19.998H20V20C20.5 20 20 20 20.5 20C21 20 20.7348 20 21 20C21.2652 20 21 20 21.5 20C22 20 22 20 22 20V19.998H27C27.2652 19.998 27.5196 20.1034 27.7071 20.2909C27.8946 20.4784 28 20.7328 28 20.998C28 21.2632 27.8946 21.5176 27.7071 21.7051C27.5196 21.8926 27.2652 21.998 27 21.998Z" fill="#DD802A"/>
</svg>
