<svg width="33" height="33" viewBox="0 0 33 33" fill="none" xmlns="http://www.w3.org/2000/svg">
<path d="M9.625 30.25C8.86875 30.25 8.22112 29.9805 7.68212 29.4415C7.14312 28.9025 6.87408 28.2553 6.875 27.5C6.875 26.7437 7.1445 26.0961 7.6835 25.5571C8.2225 25.0181 8.86967 24.7491 9.625 24.75C10.3813 24.75 11.0289 25.0195 11.5679 25.5585C12.1069 26.0975 12.3759 26.7447 12.375 27.5C12.375 28.2563 12.1055 28.9039 11.5665 29.4429C11.0275 29.9819 10.3803 30.2509 9.625 30.25ZM23.375 30.25C22.6187 30.25 21.9711 29.9805 21.4321 29.4415C20.8931 28.9025 20.6241 28.2553 20.625 27.5C20.625 26.7437 20.8945 26.0961 21.4335 25.5571C21.9725 25.0181 22.6197 24.7491 23.375 24.75C24.1313 24.75 24.7789 25.0195 25.3179 25.5585C25.8569 26.0975 26.1259 26.7447 26.125 27.5C26.125 28.2563 25.8555 28.9039 25.3165 29.4429C24.7775 29.9819 24.1303 30.2509 23.375 30.25ZM7.15 5.5H27.4313C27.9583 5.5 28.3594 5.73513 28.6344 6.20538C28.9094 6.67563 28.9208 7.15092 28.6688 7.63125L23.7875 16.4312C23.5354 16.8896 23.1972 17.2448 22.7728 17.4969C22.3483 17.749 21.8845 17.875 21.3813 17.875H11.1375L9.625 20.625H26.125V23.375H9.625C8.59375 23.375 7.81458 22.9222 7.2875 22.0165C6.76042 21.1108 6.7375 20.2116 7.21875 19.3188L9.075 15.95L4.125 5.5H1.375V2.75H5.84375L7.15 5.5Z" fill="#E81E1E"/>
</svg>
